<?xml version="1.0" standalone="no"?>
<!DOCTYPE svg PUBLIC "-//W3C//DTD SVG 20010904//EN"
 "http://www.w3.org/TR/2001/REC-SVG-20010904/DTD/svg10.dtd">
<svg version="1.0" xmlns="http://www.w3.org/2000/svg"
 width="1024.000000pt" height="1024.000000pt" viewBox="0 0 1024.000000 1024.000000"
 preserveAspectRatio="xMidYMid meet">
<metadata>
Created by potrace 1.14, written by Peter Selinger 2001-2017
</metadata>
<g transform="translate(0.000000,1024.000000) scale(0.100000,-0.100000)"
fill="#000000" stroke="none">
<path d="M4848 10235 c-2 -1 -52 -6 -113 -9 -135 -9 -184 -14 -375 -41 -58 -8
-116 -17 -130 -20 -14 -3 -38 -8 -55 -11 -303 -54 -735 -181 -990 -289 -16 -7
-46 -20 -65 -28 -155 -64 -441 -208 -600 -302 -166 -99 -475 -307 -510 -345
-3 -3 -23 -18 -45 -34 -150 -111 -515 -451 -660 -616 -388 -441 -654 -859
-893 -1400 -9 -19 -16 -37 -17 -40 -1 -3 -6 -16 -12 -30 -93 -218 -219 -615
-257 -810 -3 -14 -12 -56 -20 -95 -8 -38 -18 -86 -21 -105 -3 -19 -7 -46 -10
-60 -6 -32 -12 -73 -20 -130 -3 -25 -8 -52 -10 -60 -2 -8 -7 -51 -11 -95 -3
-44 -8 -82 -9 -85 -10 -17 -20 -264 -20 -500 0 -240 7 -412 20 -515 2 -16 7
-57 10 -90 3 -33 8 -69 10 -80 2 -11 7 -41 10 -66 16 -135 75 -418 126 -604
170 -613 447 -1183 827 -1695 47 -63 106 -140 131 -170 25 -30 55 -65 66 -79
100 -124 337 -368 486 -501 147 -131 129 -116 348 -288 19 -15 57 -43 85 -63
401 -279 672 -427 1121 -613 236 -97 744 -240 960 -271 23 -3 52 -8 65 -10 54
-11 237 -35 376 -49 191 -20 557 -26 769 -12 182 12 303 23 335 31 8 2 42 6
75 10 33 3 67 8 75 10 8 2 33 6 55 9 61 9 136 24 285 57 581 129 1139 363
1640 688 76 49 261 178 300 208 162 126 228 179 241 192 9 9 55 50 103 91 115
99 373 364 475 487 46 54 90 107 99 118 53 62 160 208 235 317 268 392 476
810 625 1253 59 175 130 430 148 529 3 16 7 32 9 36 2 3 7 29 11 56 3 27 8 51
9 54 2 3 6 26 10 50 3 25 8 52 10 60 2 8 7 35 10 60 7 51 13 94 20 130 3 22
11 93 20 200 104 1172 -196 2338 -853 3314 -408 606 -942 1117 -1577 1508
-157 97 -443 247 -615 322 -402 176 -892 316 -1300 371 -25 3 -58 9 -75 11
-31 6 -44 7 -175 19 -41 4 -91 9 -110 11 -38 6 -646 14 -652 9z"/>
</g>
</svg>
